<svg width="54" height="54" viewBox="0 0 54 54" fill="none" xmlns="http://www.w3.org/2000/svg">
<path d="M12.9998 0C5.82976 0 -0.000244141 5.83 -0.000244141 13C-0.000244141 20.17 5.82976 26 12.9998 26C20.1698 26 25.9998 20.17 25.9998 13C25.9998 5.83 20.1698 0 12.9998 0ZM12.9998 24C6.92976 24 1.99976 19.07 1.99976 13C1.99976 6.93 6.92976 2 12.9998 2C19.0698 2 23.9998 6.93 23.9998 13C23.9998 19.07 19.0698 24 12.9998 24Z" fill="url(#paint0_linear)"/>
<path d="M12.9998 28C5.82976 28 -0.000244141 33.83 -0.000244141 41C-0.000244141 48.17 5.82976 54 12.9998 54C20.1698 54 25.9998 48.17 25.9998 41C25.9998 33.83 20.1698 28 12.9998 28ZM12.9998 52C6.92976 52 1.99976 47.07 1.99976 41C1.99976 34.93 6.92976 30 12.9998 30C19.0698 30 23.9998 34.93 23.9998 41C23.9998 47.07 19.0698 52 12.9998 52Z" fill="url(#paint1_linear)"/>
<path d="M40.9998 26C48.1698 26 53.9998 20.17 53.9998 13C53.9998 5.83 48.1698 0 40.9998 0C33.8298 0 27.9998 5.83 27.9998 13C27.9998 20.17 33.8298 26 40.9998 26ZM40.9998 2C47.0698 2 51.9998 6.93 51.9998 13C51.9998 19.07 47.0698 24 40.9998 24C34.9298 24 29.9998 19.07 29.9998 13C29.9998 6.93 34.9298 2 40.9998 2Z" fill="url(#paint2_linear)"/>
<path d="M40.9998 28C33.8298 28 27.9998 33.83 27.9998 41C27.9998 48.17 33.8298 54 40.9998 54C48.1698 54 53.9998 48.17 53.9998 41C53.9998 33.83 48.1698 28 40.9998 28ZM40.9998 52C34.9298 52 29.9998 47.07 29.9998 41C29.9998 34.93 34.9298 30 40.9998 30C47.0698 30 51.9998 34.93 51.9998 41C51.9998 47.07 47.0698 52 40.9998 52Z" fill="url(#paint3_linear)"/>
<path d="M18.9998 12H13.9998V7C13.9998 6.45 13.5498 6 12.9998 6C12.4498 6 11.9998 6.45 11.9998 7V12H6.99976C6.44976 12 5.99976 12.45 5.99976 13C5.99976 13.55 6.44976 14 6.99976 14H11.9998V19C11.9998 19.55 12.4498 20 12.9998 20C13.5498 20 13.9998 19.55 13.9998 19V14H18.9998C19.5498 14 19.9998 13.55 19.9998 13C19.9998 12.45 19.5498 12 18.9998 12Z" fill="url(#paint4_linear)"/>
<path d="M18.7098 35.2901C18.3198 34.9001 17.6898 34.9001 17.2998 35.2901L12.9998 39.5901L8.70982 35.3001C8.31982 34.9101 7.68982 34.9101 7.29982 35.3001C6.90982 35.6901 6.90982 36.3201 7.29982 36.7101L11.5898 41.0001L7.29982 45.2901C6.90982 45.6801 6.90982 46.3101 7.29982 46.7001C7.48982 46.9001 7.73982 47.0001 7.99982 47.0001C8.25982 47.0001 8.50982 46.9001 8.70982 46.7101L12.9998 42.4101L17.2898 46.7001C17.4898 46.9001 17.7398 47.0001 17.9998 47.0001C18.2598 47.0001 18.5098 46.9001 18.7098 46.7101C19.0998 46.3201 19.0998 45.6901 18.7098 45.3001L14.4098 41.0001L18.6998 36.7101C19.0998 36.3201 19.0998 35.6801 18.7098 35.2901Z" fill="url(#paint5_linear)"/>
<path d="M34.9998 14H46.9998C47.5498 14 47.9998 13.55 47.9998 13C47.9998 12.45 47.5498 12 46.9998 12H34.9998C34.4498 12 33.9998 12.45 33.9998 13C33.9998 13.55 34.4498 14 34.9998 14Z" fill="url(#paint6_linear)"/>
<path d="M46.9998 40H34.9998C34.4498 40 33.9998 40.45 33.9998 41C33.9998 41.55 34.4498 42 34.9998 42H46.9998C47.5498 42 47.9998 41.55 47.9998 41C47.9998 40.45 47.5498 40 46.9998 40Z" fill="url(#paint7_linear)"/>
<path d="M40.9997 37.7999C41.9897 37.7999 42.7997 36.99 42.7997 36C42.7997 35.01 41.9897 34.2 40.9997 34.2C40.0097 34.2 39.1997 35.01 39.1997 36C39.1997 36.99 40.0097 37.7999 40.9997 37.7999Z" fill="url(#paint8_linear)"/>
<path d="M40.9997 44.2C40.0097 44.2 39.1997 45.01 39.1997 46C39.1997 46.99 40.0097 47.7999 40.9997 47.7999C41.9897 47.7999 42.7997 46.99 42.7997 46C42.7997 45.01 41.9897 44.2 40.9997 44.2Z" fill="url(#paint9_linear)"/>
<defs>
<linearGradient id="paint0_linear" x1="7.48889" y1="16.0588" x2="30.1928" y2="12.801" gradientUnits="userSpaceOnUse">
<stop stop-color="#2F97F6"/>
<stop offset="1" stop-color="#2DE799"/>
</linearGradient>
<linearGradient id="paint1_linear" x1="7.48889" y1="44.0588" x2="30.1928" y2="40.801" gradientUnits="userSpaceOnUse">
<stop stop-color="#2F97F6"/>
<stop offset="1" stop-color="#2DE799"/>
</linearGradient>
<linearGradient id="paint2_linear" x1="35.4889" y1="16.0588" x2="58.1928" y2="12.801" gradientUnits="userSpaceOnUse">
<stop stop-color="#2F97F6"/>
<stop offset="1" stop-color="#2DE799"/>
</linearGradient>
<linearGradient id="paint3_linear" x1="35.4889" y1="44.0588" x2="58.1928" y2="40.801" gradientUnits="userSpaceOnUse">
<stop stop-color="#2F97F6"/>
<stop offset="1" stop-color="#2DE799"/>
</linearGradient>
<linearGradient id="paint4_linear" x1="10.0324" y1="14.6471" x2="22.2576" y2="12.8928" gradientUnits="userSpaceOnUse">
<stop stop-color="#2F97F6"/>
<stop offset="1" stop-color="#2DE799"/>
</linearGradient>
<linearGradient id="paint5_linear" x1="10.4624" y1="42.4109" x2="20.937" y2="40.9088" gradientUnits="userSpaceOnUse">
<stop stop-color="#2F97F6"/>
<stop offset="1" stop-color="#2DE799"/>
</linearGradient>
<linearGradient id="paint6_linear" x1="38.0324" y1="13.2353" x2="44.2431" y2="6.9969" gradientUnits="userSpaceOnUse">
<stop stop-color="#2F97F6"/>
<stop offset="1" stop-color="#2DE799"/>
</linearGradient>
<linearGradient id="paint7_linear" x1="38.0324" y1="41.2353" x2="44.2431" y2="34.9969" gradientUnits="userSpaceOnUse">
<stop stop-color="#2F97F6"/>
<stop offset="1" stop-color="#2DE799"/>
</linearGradient>
<linearGradient id="paint8_linear" x1="40.2367" y1="36.4235" x2="43.3803" y2="35.9724" gradientUnits="userSpaceOnUse">
<stop stop-color="#2F97F6"/>
<stop offset="1" stop-color="#2DE799"/>
</linearGradient>
<linearGradient id="paint9_linear" x1="40.2367" y1="46.4235" x2="43.3803" y2="45.9724" gradientUnits="userSpaceOnUse">
<stop stop-color="#2F97F6"/>
<stop offset="1" stop-color="#2DE799"/>
</linearGradient>
</defs>
</svg>
