<svg width="54" height="54" viewBox="0 0 54 54" fill="none" xmlns="http://www.w3.org/2000/svg">
<path d="M49 0H13C10.24 0 8 2.24 8 5V8V16V20H5C2.24 20 0 22.24 0 25V49C0 51.76 2.24 54 5 54H41C43.76 54 46 51.76 46 49V34H49C51.76 34 54 31.76 54 29V16V8V5C54 2.24 51.76 0 49 0ZM10 10H52V14H10V10ZM44 49C44 50.65 42.65 52 41 52H5C3.35 52 2 50.65 2 49V25C2 23.35 3.35 22 5 22H41C42.65 22 44 23.35 44 25V49ZM52 29C52 30.65 50.65 32 49 32H46V25C46 22.24 43.76 20 41 20H10V16H52V29ZM10 8V5C10 3.35 11.35 2 13 2H49C50.65 2 52 3.35 52 5V8H10Z" fill="url(#paint0_linear)"/>
<path d="M17 45H9C8.45 45 8 45.45 8 46C8 46.55 8.45 47 9 47H17C17.55 47 18 46.55 18 46C18 45.45 17.55 45 17 45Z" fill="url(#paint1_linear)"/>
<path d="M34 45H22C21.45 45 21 45.45 21 46C21 46.55 21.45 47 22 47H34C34.55 47 35 46.55 35 46C35 45.45 34.55 45 34 45Z" fill="url(#paint2_linear)"/>
<path d="M39 26H29C28.45 26 28 26.45 28 27V33C28 33.55 28.45 34 29 34H39C39.55 34 40 33.55 40 33V27C40 26.45 39.55 26 39 26ZM38 32H30V28H38V32Z" fill="url(#paint3_linear)"/>
<defs>
<linearGradient id="paint0_linear" x1="15.5543" y1="33.3529" x2="62.7087" y2="26.5866" gradientUnits="userSpaceOnUse">
<stop stop-color="#2F97F6"/>
<stop offset="1" stop-color="#2DE799"/>
</linearGradient>
<linearGradient id="paint1_linear" x1="10.8804" y1="46.2353" x2="16.7639" y2="42.0141" gradientUnits="userSpaceOnUse">
<stop stop-color="#2F97F6"/>
<stop offset="1" stop-color="#2DE799"/>
</linearGradient>
<linearGradient id="paint2_linear" x1="25.0326" y1="46.2353" x2="31.2434" y2="39.9969" gradientUnits="userSpaceOnUse">
<stop stop-color="#2F97F6"/>
<stop offset="1" stop-color="#2DE799"/>
</linearGradient>
<linearGradient id="paint3_linear" x1="31.4565" y1="30.9412" x2="41.6775" y2="28.7412" gradientUnits="userSpaceOnUse">
<stop stop-color="#2F97F6"/>
<stop offset="1" stop-color="#2DE799"/>
</linearGradient>
</defs>
</svg>
