<svg width="55" height="52" viewBox="0 0 55 52" fill="none" xmlns="http://www.w3.org/2000/svg">
<g clip-path="url(#clip0)">
<path d="M1.76401 12.9399L24.844 22.1699C25.454 22.4099 26.244 22.5499 27.074 22.5499C27.904 22.5499 28.694 22.4199 29.304 22.1699L52.384 12.9399C53.594 12.4499 53.784 11.6799 53.784 11.2699C53.784 10.8499 53.604 10.0799 52.384 9.59993L29.304 0.359932C28.084 -0.130068 26.064 -0.130068 24.844 0.359932L1.76401 9.59993C0.554014 10.0899 0.364014 10.8599 0.364014 11.2699C0.364014 11.6899 0.544014 12.4599 1.76401 12.9399ZM25.584 2.21993C26.334 1.91993 27.814 1.91993 28.554 2.21993L51.174 11.2699L28.554 20.3199C27.804 20.6199 26.324 20.6199 25.584 20.3199L2.97401 11.2699L25.584 2.21993Z" fill="url(#paint0_linear)"/>
<path d="M0.634041 22.47L24.844 32.16C25.464 32.41 26.274 32.53 27.074 32.53C27.874 32.53 28.674 32.41 29.304 32.16L53.514 22.47C54.024 22.26 54.274 21.68 54.074 21.17C53.864 20.66 53.284 20.41 52.774 20.61L28.564 30.3C27.784 30.61 26.364 30.61 25.594 30.3L1.37404 20.61C0.864041 20.41 0.284041 20.65 0.0740409 21.17C-0.125959 21.68 0.124041 22.27 0.634041 22.47Z" fill="url(#paint1_linear)"/>
<path d="M52.7741 30.34L28.5641 40.03C27.7841 40.34 26.3641 40.34 25.5941 40.03L1.37409 30.34C0.864094 30.14 0.284094 30.38 0.0740945 30.9C-0.135906 31.41 0.114094 31.99 0.634094 32.2L24.8441 41.89C25.4641 42.14 26.2741 42.26 27.0741 42.26C27.8741 42.26 28.6741 42.14 29.3041 41.89L53.5141 32.2C54.0241 31.99 54.2741 31.41 54.0741 30.9C53.8641 30.39 53.2841 30.14 52.7741 30.34Z" fill="url(#paint2_linear)"/>
<path d="M52.7741 40.0699L28.5641 49.7499C27.7841 50.0599 26.3741 50.0599 25.5941 49.7499L1.37409 40.0699C0.864094 39.8699 0.284094 40.1099 0.0740945 40.6299C-0.135906 41.1399 0.114094 41.7199 0.634094 41.9299L24.8441 51.6099C25.4641 51.8599 26.2741 51.9899 27.0741 51.9899C27.8741 51.9899 28.6741 51.8699 29.3041 51.6099L53.5141 41.9299C54.0241 41.7199 54.2741 41.1399 54.0741 40.6299C53.8641 40.1199 53.2841 39.8699 52.7741 40.0699Z" fill="url(#paint3_linear)"/>
</g>
<defs>
<linearGradient id="paint0_linear" x1="15.7513" y1="13.925" x2="58.4312" y2="-0.578298" gradientUnits="userSpaceOnUse">
<stop stop-color="#2F97F6"/>
<stop offset="1" stop-color="#2DE799"/>
</linearGradient>
<linearGradient id="paint1_linear" x1="15.5992" y1="27.9455" x2="49.5822" y2="5.92802" gradientUnits="userSpaceOnUse">
<stop stop-color="#2F97F6"/>
<stop offset="1" stop-color="#2DE799"/>
</linearGradient>
<linearGradient id="paint2_linear" x1="15.5954" y1="37.6755" x2="49.5798" y2="15.6549" gradientUnits="userSpaceOnUse">
<stop stop-color="#2F97F6"/>
<stop offset="1" stop-color="#2DE799"/>
</linearGradient>
<linearGradient id="paint3_linear" x1="15.5954" y1="47.4055" x2="49.5798" y2="25.3849" gradientUnits="userSpaceOnUse">
<stop stop-color="#2F97F6"/>
<stop offset="1" stop-color="#2DE799"/>
</linearGradient>
<clipPath id="clip0">
<rect width="54.14" height="51.99" fill="white" transform="translate(-0.000244141)"/>
</clipPath>
</defs>
</svg>
