<svg width="50" height="55" viewBox="0 0 50 55" fill="none" xmlns="http://www.w3.org/2000/svg">
<g clip-path="url(#clip0)">
<path d="M48.6698 47.3299C47.6198 43.8899 39.1598 39.2199 35.2298 37.5099C34.9598 37.3899 34.6598 37.3999 34.3898 37.5299L24.8498 42.1399L16.2998 37.5499C16.0398 37.4099 15.7398 37.3899 15.4598 37.4999C12.0298 38.8299 2.02976 43.5099 1.02976 47.3799C0.319756 50.1399 0.0297559 51.4999 0.0197559 51.5499C0.00975586 51.6099 -0.000244141 51.6799 -0.000244141 51.7499C-0.000244141 53.1099 0.679756 53.7499 1.24976 54.0499C2.08976 54.4899 3.09976 54.4499 4.13976 54.4299C4.35976 54.4299 4.58976 54.4199 4.81976 54.4199H44.8198C45.1198 54.4199 45.4198 54.4299 45.7098 54.4399C45.9998 54.4499 46.2898 54.4599 46.5598 54.4599C47.3298 54.4599 49.6598 54.4599 49.6598 51.8799C49.6598 50.8399 49.5598 50.2499 48.6698 47.3299ZM46.5598 52.4699C46.3098 52.4699 46.0498 52.4599 45.7898 52.4499C45.4798 52.4399 45.1598 52.4299 44.8298 52.4299H4.82976C4.58976 52.4299 4.34976 52.4299 4.10976 52.4299C3.89976 52.4299 3.68976 52.4299 3.47976 52.4299C3.47976 52.4299 3.47976 52.4299 3.46976 52.4299C3.18976 52.4299 2.48976 52.4399 2.17976 52.2699C2.11976 52.2399 2.01976 52.1899 1.99976 51.8499C2.07976 51.4799 2.37976 50.1599 2.96976 47.8799C3.54976 45.6199 10.6698 41.5799 15.7598 39.5299L24.3498 44.1399C24.6298 44.2899 24.9698 44.2999 25.2598 44.1599L34.8398 39.5299C40.4698 42.0599 46.1898 46.0699 46.7498 47.9199C47.5998 50.7299 47.6498 51.1399 47.6498 51.8899C47.6598 52.3399 47.6598 52.4699 46.5598 52.4699Z" fill="url(#paint0_linear)"/>
<path d="M14.3298 25.74C14.8698 27.09 15.4798 28.05 16.1298 29.07C16.3098 29.36 16.4998 29.65 16.6898 29.95C17.3398 31.01 17.9998 31.81 18.7298 32.42C18.6798 33.41 18.5598 34.62 18.3398 35.52C18.2098 36.06 18.5398 36.6 19.0698 36.73C19.6098 36.86 20.1498 36.53 20.2798 36C20.5798 34.78 20.7198 33.12 20.7498 31.97C20.7598 31.63 20.5998 31.31 20.3198 31.12C19.6398 30.65 19.0298 29.95 18.3998 28.91C18.1998 28.6 18.0098 28.3 17.8198 28C17.1298 26.91 16.5298 25.97 16.0198 24.56C15.8898 24.19 15.4998 23.93 15.1098 23.9C15.0098 23.89 14.7498 23.73 14.6098 23.48C13.5998 21.63 13.1698 18.8 13.3598 18.22C13.3898 18.2 13.4998 18.17 13.7398 18.17C14.0198 18.19 14.2798 18.07 14.4798 17.87C14.6698 17.67 14.7798 17.41 14.7698 17.13C14.5598 11.39 16.6698 8.30997 18.4798 6.72997C18.8098 6.43997 18.9198 5.96997 18.7298 5.56997C18.7198 5.53997 18.6998 5.51997 18.6898 5.48997C19.5398 4.91997 20.9798 4.94997 20.9898 4.95997L21.0498 3.95997L21.8698 3.38997C21.7998 3.23997 21.9398 2.86997 22.1298 2.53997C22.6998 3.00997 23.4598 3.34997 24.1598 3.54997C26.2098 4.11997 27.6998 4.70997 28.6298 5.10997C32.8898 6.79997 35.2098 11.18 34.9898 17.13C34.9798 17.4 35.0798 17.66 35.2598 17.85C35.4398 18.04 35.6998 18.16 35.9698 18.16C36.1498 18.16 36.2498 18.2 36.2398 18.18C36.4498 18.79 36.0198 21.63 35.0098 23.48C34.8698 23.74 34.6098 23.9 34.5098 23.92C34.1398 23.97 33.8398 24.22 33.7098 24.56C33.1898 25.96 32.5598 26.94 31.8998 27.99C31.6998 28.31 31.4898 28.63 31.2898 28.96C30.6798 29.96 30.1298 30.63 29.5498 31.07C29.2998 31.26 29.1598 31.56 29.1598 31.87C29.1698 32.78 29.2398 34.54 29.6698 36.11C29.7898 36.55 30.1898 36.85 30.6298 36.85C30.7198 36.85 30.8098 36.84 30.8898 36.81C31.4198 36.66 31.7398 36.11 31.5898 35.58C31.2798 34.44 31.1898 33.12 31.1598 32.32C31.7998 31.75 32.3898 31 32.9998 30C33.1998 29.67 33.3998 29.37 33.5898 29.06C34.2098 28.08 34.8598 27.07 35.4098 25.71C35.9598 25.46 36.4598 25 36.7698 24.43C37.9298 22.29 38.6098 18.87 38.1298 17.51C37.9398 16.96 37.5398 16.56 36.9998 16.34C36.9998 10.02 34.1798 5.14997 29.3998 3.25997C28.4498 2.83997 26.8598 2.21997 24.6898 1.61997C23.7398 1.35997 23.2798 0.919973 23.2298 0.839973C23.1898 0.569973 23.0398 0.329973 22.8098 0.179973C22.5898 0.0299734 22.3098 -0.0300266 22.0398 0.0199734C21.1698 0.189973 20.3998 1.35997 20.0998 2.10997C19.9798 2.41997 19.8998 2.71997 19.8598 3.00997C18.5398 3.19997 16.6798 3.82997 16.1698 5.69997C16.1098 5.86997 16.0898 6.04997 16.1198 6.21997C14.3898 8.15997 12.7298 11.31 12.7298 16.3C12.1198 16.5 11.6798 16.92 11.4798 17.51C10.9998 18.86 11.6698 22.29 12.8398 24.43C13.1898 25.04 13.7298 25.51 14.3298 25.74Z" fill="url(#paint1_linear)"/>
</g>
<defs>
<linearGradient id="paint0_linear" x1="14.304" y1="47.9468" x2="51.9699" y2="32.1901" gradientUnits="userSpaceOnUse">
<stop stop-color="#2F97F6"/>
<stop offset="1" stop-color="#2DE799"/>
</linearGradient>
<linearGradient id="paint1_linear" x1="19.0893" y1="22.7613" x2="42.8564" y2="20.2658" gradientUnits="userSpaceOnUse">
<stop stop-color="#2F97F6"/>
<stop offset="1" stop-color="#2DE799"/>
</linearGradient>
<clipPath id="clip0">
<rect width="49.66" height="54.47" fill="white" transform="translate(-0.000244141)"/>
</clipPath>
</defs>
</svg>
