<svg width="80" height="20" viewBox="0 0 80 20" fill="none" xmlns="http://www.w3.org/2000/svg">
<path d="M18.0939 4.26234C15.9129 4.28382 13.9643 5.28545 12.6639 6.8455C11.3636 5.28545 9.41498 4.28382 7.23403 4.26234C3.25482 4.22329 0 7.54644 0 11.5256V18.6503H3.37003V11.4964C3.37003 9.42671 5.00037 7.68312 7.07003 7.63431C9.20216 7.58354 10.9536 9.30371 10.9536 11.4241V18.6503H14.3236V11.4241H14.3743C14.3743 9.30371 16.1257 7.58354 18.2579 7.63431C20.3275 7.68312 21.9579 9.42671 21.9579 11.4964V18.6503H25.3279V11.5256C25.3279 7.54644 22.0731 4.22134 18.0939 4.26234Z" fill="#2F97F6"/>
<path d="M36.1936 3.659C31.8942 3.659 28.3972 7.15593 28.3972 11.4553C28.3972 15.7548 31.8942 19.2517 36.1936 19.2517C40.493 19.2517 43.9899 15.7548 43.9899 11.4553C43.9899 7.15593 40.493 3.659 36.1936 3.659ZM36.1936 15.8817C33.7529 15.8817 31.7672 13.896 31.7672 11.4553C31.7672 9.01472 33.7529 7.03098 36.1936 7.03098C38.6342 7.03098 40.6199 9.01667 40.6199 11.4553C40.6199 13.896 38.6342 15.8817 36.1936 15.8817Z" fill="#2F97F6"/>
<path d="M72.2055 3.659C67.9061 3.659 64.4092 7.15593 64.4092 11.4553C64.4092 15.7548 67.9061 19.2517 72.2055 19.2517C76.503 19.2517 79.9999 15.7548 79.9999 11.4553C79.9999 7.15593 76.503 3.659 72.2055 3.659ZM72.2055 15.8817C69.7649 15.8817 67.7792 13.896 67.7792 11.4553C67.7792 9.01472 69.7649 7.03098 72.2055 7.03098C74.6462 7.03098 76.6299 9.01667 76.6299 11.4553C76.6299 13.896 74.6442 15.8817 72.2055 15.8817Z" fill="#2F97F6"/>
<path d="M58.626 5.04332C57.3686 4.17251 55.8437 3.66095 54.2016 3.66095C49.9022 3.66095 46.4053 7.15788 46.4053 11.4573C46.4053 15.7567 49.9022 19.2537 54.2016 19.2537C58.4991 19.2537 61.996 15.7567 61.996 11.4573V0H58.626V5.04332ZM54.1997 15.8817C51.759 15.8817 49.7733 13.896 49.7733 11.4553C49.7733 9.01471 51.759 7.03097 54.1997 7.03097C56.6403 7.03097 58.624 9.01667 58.624 11.4553C58.626 13.896 56.6403 15.8817 54.1997 15.8817Z" fill="#2F97F6"/>
</svg>
