<svg width="31" height="19" viewBox="0 0 31 19" fill="none" xmlns="http://www.w3.org/2000/svg">
<path d="M17.7063 9.5H13.2983C13.2983 7.18025 11.4085 5.29044 9.08874 5.29044C6.769 5.29044 4.87918 7.18025 4.87918 9.5H0.471191C0.471191 4.75184 4.33586 0.882446 9.08874 0.882446C13.8416 0.882446 17.7063 4.75184 17.7063 9.5Z" fill="white"/>
<g opacity="0.65">
<path opacity="0.65" d="M17.7063 9.50138H13.2983C13.2983 7.18164 11.4085 5.29182 9.08874 5.29182C6.769 5.29182 4.87918 7.18164 4.87918 9.50138H0.471191C0.471191 4.75322 4.33586 0.888554 9.08402 0.888554C13.8322 0.888554 17.7063 4.75322 17.7063 9.50138Z" fill="url(#paint0_linear)"/>
</g>
<path d="M21.911 18.1176C17.1629 18.1176 13.2935 14.2529 13.2935 9.5C13.2935 4.75184 17.1581 0.882446 21.911 0.882446C26.6592 0.882446 30.5286 4.74712 30.5286 9.5C30.5286 14.2529 26.6639 18.1176 21.911 18.1176ZM21.911 5.29044C19.5913 5.29044 17.7014 7.18025 17.7014 9.5C17.7014 11.8197 19.5913 13.7096 21.911 13.7096C24.2308 13.7096 26.1206 11.8197 26.1206 9.5C26.1206 7.18025 24.2308 5.29044 21.911 5.29044Z" fill="white"/>
<defs>
<linearGradient id="paint0_linear" x1="0.473695" y1="5.19459" x2="17.7041" y2="5.19459" gradientUnits="userSpaceOnUse">
<stop stop-color="white" stop-opacity="0"/>
<stop offset="0.1836" stop-color="#FBFBFB" stop-opacity="0.1836"/>
<stop offset="0.3766" stop-color="#EEEEEE" stop-opacity="0.3766"/>
<stop offset="0.574" stop-color="#D9D9D9" stop-opacity="0.574"/>
<stop offset="0.7743" stop-color="#BCBCBC" stop-opacity="0.7744"/>
<stop offset="0.9751" stop-color="#979696" stop-opacity="0.9752"/>
<stop offset="1" stop-color="#929191" stop-opacity="0.95"/>
</linearGradient>
</defs>
</svg>
