<svg width="54" height="54" viewBox="0 0 54 54" fill="none" xmlns="http://www.w3.org/2000/svg">
<path d="M41 52H2C1.45 52 1 52.45 1 53C1 53.55 1.45 54 2 54H41C41.55 54 42 53.55 42 53C42 52.45 41.55 52 41 52Z" fill="url(#paint0_linear)"/>
<path d="M52.31 22.55C49.57 19.31 43.99 19.87 43 20V16C43 15.45 42.55 15 42 15H1C0.45 15 0 15.45 0 16V23C0 34.59 0 40.41 2.29 42.71C4.17 44.59 4 47.91 4 47.94C3.98 48.22 4.08 48.49 4.27 48.69C4.46 48.89 4.72 49 5 49H38C38.28 49 38.54 48.89 38.73 48.69C38.92 48.49 39.02 48.22 39 47.94C39 47.91 38.83 44.59 40.71 42.71C41.15 42.27 41.5 41.7 41.79 41C42.13 41.13 42.81 41.34 43.72 41.34C44.4 41.34 45.2 41.22 46.07 40.86C48.93 39.68 51.24 36.47 52.96 31.32C54.22 27.5 54 24.55 52.31 22.55ZM41 23C41 33.34 41 39.59 39.29 41.29C37.52 43.06 37.1 45.58 37.01 47H5.99C5.9 45.58 5.48 43.06 3.71 41.29C2 39.59 2 33.34 2 23V17H41V23ZM51.05 30.68C49.17 36.33 46.91 38.31 45.35 38.98C43.72 39.68 42.49 39.12 42.45 39.1C42.41 39.08 42.37 39.08 42.33 39.07C43 35.81 43 30.68 43 23V21.98C43.05 21.98 43.1 22 43.15 21.99C44.65 21.76 48.93 21.64 50.78 23.84C52 25.27 52.09 27.58 51.05 30.68Z" fill="url(#paint1_linear)"/>
<path d="M12 41H35C35.55 41 36 40.55 36 40C36 39.45 35.55 39 35 39H12C11.45 39 11 39.45 11 40C11 40.55 11.45 41 12 41Z" fill="url(#paint2_linear)"/>
<path d="M17.2901 12.7102C17.4901 12.9002 17.7401 13.0002 18.0001 13.0002C18.2601 13.0002 18.5101 12.9002 18.7101 12.7102C19.1001 12.3202 19.1001 11.6902 18.7101 11.3002C18.7001 11.2902 18.1201 10.6902 17.8301 9.82021C17.4601 8.70021 17.7501 7.69021 18.7101 6.72021C19.9001 5.53021 20.4401 4.29021 20.3201 3.04021C20.1501 1.28021 18.7201 0.290206 18.5601 0.180206C18.1001 -0.119794 17.4901 0.000205964 17.1801 0.450206C16.8701 0.900206 16.9901 1.52021 17.4401 1.84021C17.4501 1.85021 18.2501 2.41021 18.3301 3.25021C18.3901 3.87021 18.0401 4.56021 17.3001 5.30021C14.3601 8.23021 16.0101 11.4202 17.2901 12.7102Z" fill="url(#paint3_linear)"/>
<path d="M23.8599 11.0301C24.1799 12.0001 24.8099 12.6401 24.8799 12.7101C25.0699 12.9001 25.3299 13.0001 25.5799 13.0001C25.8299 13.0001 26.0899 12.9001 26.2799 12.7101C26.6699 12.3201 26.6799 11.6901 26.2899 11.3001C25.9799 10.9801 25.0499 9.82012 26.2799 8.58012C27.1699 7.69012 27.5699 6.76012 27.4799 5.80012C27.3499 4.45012 26.2499 3.69012 26.1299 3.60012C25.6699 3.29012 25.0499 3.42012 24.7399 3.88012C24.4299 4.34012 24.5599 4.96012 25.0199 5.27012C25.0199 5.27012 25.4499 5.59012 25.4899 6.00012C25.5299 6.41012 25.1799 6.86012 24.8699 7.17012C23.7699 8.28012 23.4099 9.65012 23.8599 11.0301Z" fill="url(#paint4_linear)"/>
<defs>
<linearGradient id="paint0_linear" x1="12.8098" y1="53.2353" x2="16.5951" y2="42.1005" gradientUnits="userSpaceOnUse">
<stop stop-color="#2F97F6"/>
<stop offset="1" stop-color="#2DE799"/>
</linearGradient>
<linearGradient id="paint1_linear" x1="15.4867" y1="36" x2="61.0565" y2="25.6598" gradientUnits="userSpaceOnUse">
<stop stop-color="#2F97F6"/>
<stop offset="1" stop-color="#2DE799"/>
</linearGradient>
<linearGradient id="paint2_linear" x1="18.2011" y1="40.2353" x2="23.4842" y2="30.7591" gradientUnits="userSpaceOnUse">
<stop stop-color="#2F97F6"/>
<stop offset="1" stop-color="#2DE799"/>
</linearGradient>
<linearGradient id="paint3_linear" x1="17.0047" y1="8.03533" x2="21.1642" y2="7.82022" gradientUnits="userSpaceOnUse">
<stop stop-color="#2F97F6"/>
<stop offset="1" stop-color="#2DE799"/>
</linearGradient>
<linearGradient id="paint4_linear" x1="24.7716" y1="9.34139" x2="28.1662" y2="9.14687" gradientUnits="userSpaceOnUse">
<stop stop-color="#2F97F6"/>
<stop offset="1" stop-color="#2DE799"/>
</linearGradient>
</defs>
</svg>
