<svg width="50" height="54" viewBox="0 0 50 54" fill="none" xmlns="http://www.w3.org/2000/svg">
<path d="M44.5398 21C43.3698 21 42.2998 21.42 41.4498 22.1C41.0198 19.77 38.9898 18 36.5398 18C35.0998 18 33.8098 18.62 32.8998 19.6C32.0498 18.06 30.4198 17 28.5398 17C27.4098 17 26.3798 17.39 25.5398 18.03V5C25.5398 2.24 23.2998 0 20.5398 0C17.7798 0 15.5398 2.24 15.5398 5V32.73L8.15975 25.97C6.13975 24.12 3.07975 24.05 1.32975 25.8C-0.390246 27.52 -0.450246 30.65 1.19975 32.78L10.2898 44.47C11.6598 46.24 14.0698 48.96 15.6598 50.55L15.9998 50.88C17.7498 52.63 21.0598 54 23.5398 54H28.5398C29.0898 54 29.5398 53.55 29.5398 53C29.5398 52.45 29.0898 52 28.5398 52H23.5398C21.5998 52 18.7898 50.84 17.4198 49.46L17.0798 49.12C15.5398 47.58 13.2098 44.94 11.8798 43.23L2.77975 31.54C1.73975 30.21 1.72975 28.22 2.73975 27.2C3.72975 26.21 5.58975 26.32 6.80975 27.43L15.5398 35.43V36C15.5398 36.55 15.9898 37 16.5398 37C17.0898 37 17.5398 36.55 17.5398 36V5C17.5398 3.35 18.8898 2 20.5398 2C22.1898 2 23.5398 3.35 23.5398 5V22V25V28C23.5398 28.55 23.9898 29 24.5398 29C25.0898 29 25.5398 28.55 25.5398 28V25V22C25.5398 20.35 26.8898 19 28.5398 19C30.1898 19 31.5398 20.35 31.5398 22V23V26V29C31.5398 29.55 31.9898 30 32.5398 30C33.0898 30 33.5398 29.55 33.5398 29V26V23C33.5398 21.35 34.8898 20 36.5398 20C38.1898 20 39.5398 21.35 39.5398 23V26V28V30C39.5398 30.55 39.9898 31 40.5398 31C41.0898 31 41.5398 30.55 41.5398 30V28V26C41.5398 24.35 42.8898 23 44.5398 23C46.1898 23 47.5398 24.35 47.5398 26V36V37V46C47.5398 49.31 45.0698 52 42.0398 52H35.5398C34.9898 52 34.5398 52.45 34.5398 53C34.5398 53.55 34.9898 54 35.5398 54H42.0398C46.1798 54 49.5398 50.41 49.5398 46V37V36V26C49.5398 23.24 47.2898 21 44.5398 21Z" fill="url(#paint0_linear)"/>
<defs>
<linearGradient id="paint0_linear" x1="14.2696" y1="33.3529" x2="57.6678" y2="27.64" gradientUnits="userSpaceOnUse">
<stop stop-color="#2F97F6"/>
<stop offset="1" stop-color="#2DE799"/>
</linearGradient>
</defs>
</svg>
