<svg width="78" height="77" viewBox="0 0 78 77" fill="none" xmlns="http://www.w3.org/2000/svg">
<path d="M44.7194 22.3583H33.2825C33.2825 16.3353 28.3827 11.4354 22.3597 11.4354C16.3367 11.4354 11.4368 16.3353 11.4368 22.3583H0C0 10.0306 10.0301 0.000488552 22.3578 0.000488552C34.6893 -0.00141505 44.7194 10.0287 44.7194 22.3583Z" fill="url(#paint0_linear)"/>
<path d="M55.6422 44.7156C43.3145 44.7156 33.2844 34.6855 33.2844 22.3578C33.2844 10.0301 43.3145 0 55.6422 0C67.9699 0 78 10.0301 78 22.3578C78 34.6855 67.9699 44.7156 55.6422 44.7156ZM55.6422 11.4349C49.6192 11.4349 44.7194 16.3348 44.7194 22.3578C44.7194 28.3808 49.6192 33.2806 55.6422 33.2806C61.6652 33.2806 66.5651 28.3808 66.5651 22.3578C66.5651 16.3348 61.6633 11.4349 55.6422 11.4349Z" fill="white"/>
<path d="M17.6443 61.7972C15.518 61.8182 13.6182 62.7947 12.3504 64.3157C11.0826 62.7947 9.18281 61.8182 7.05649 61.7972C3.17695 61.7592 0.00366211 64.9991 0.00366211 68.8786V75.8249H3.28928V68.8501C3.28928 66.8323 4.87878 65.1323 6.89659 65.0848C8.97532 65.0353 10.6829 66.7123 10.6829 68.7796V75.8249H13.9685V68.7796H14.018C14.018 66.7123 15.7255 65.0353 17.8042 65.0848C19.822 65.1323 21.4116 66.8323 21.4116 68.8501V75.8249H24.6971V68.8786C24.6971 64.9991 21.5238 61.7573 17.6443 61.7972Z" fill="white"/>
<path d="M35.2927 61.2095C31.101 61.2095 27.6917 64.6188 27.6917 68.8105C27.6917 73.0023 31.101 76.4116 35.2927 76.4116C39.4844 76.4116 42.8938 73.0023 42.8938 68.8105C42.8919 64.6188 39.4825 61.2095 35.2927 61.2095ZM35.2927 73.126C32.9132 73.126 30.9773 71.19 30.9773 68.8105C30.9773 66.431 32.9132 64.497 35.2927 64.497C37.6722 64.497 39.6082 66.433 39.6082 68.8105C39.6063 71.19 37.6703 73.126 35.2927 73.126Z" fill="white"/>
<path d="M70.4006 61.2095C66.2089 61.2095 62.7996 64.6188 62.7996 68.8105C62.7996 73.0023 66.2089 76.4116 70.4006 76.4116C74.5904 76.4116 77.9998 73.0023 77.9998 68.8105C77.9998 64.6188 74.5904 61.2095 70.4006 61.2095ZM70.4006 73.126C68.0211 73.126 66.0852 71.19 66.0852 68.8105C66.0852 66.431 68.0211 64.497 70.4006 64.497C72.7801 64.497 74.7142 66.433 74.7142 68.8105C74.7142 71.19 72.7782 73.126 70.4006 73.126Z" fill="white"/>
<path d="M57.1612 62.5586C55.9353 61.7096 54.4486 61.2109 52.8476 61.2109C48.6559 61.2109 45.2466 64.6202 45.2466 68.8119C45.2466 73.0037 48.6559 76.413 52.8476 76.413C57.0375 76.413 60.4468 73.0037 60.4468 68.8119V57.6416H57.1612V62.5586ZM52.8457 73.1255C50.4662 73.1255 48.5303 71.1895 48.5303 68.81C48.5303 66.4305 50.4662 64.4965 52.8457 64.4965C55.2252 64.4965 57.1593 66.4324 57.1593 68.81C57.1612 71.1895 55.2252 73.1255 52.8457 73.1255Z" fill="white"/>
<defs>
<linearGradient id="paint0_linear" x1="23.6731" y1="0.080442" x2="83.5414" y2="0.080442" gradientUnits="userSpaceOnUse">
<stop stop-color="white"/>
<stop offset="1"/>
</linearGradient>
</defs>
</svg>
