<svg width="62" height="53" viewBox="0 0 62 53" fill="none" xmlns="http://www.w3.org/2000/svg">
<path d="M60.8216 40.02H57.5116C57.9816 39.37 58.2216 38.59 58.2016 37.79V37.3C58.2116 35.87 57.4216 34.56 56.1616 33.9C57.4516 32.9 58.2016 31.36 58.2016 29.72V27.21C58.2016 25.89 57.7116 24.61 56.8416 23.61H60.8316C61.3316 23.64 61.7716 23.25 61.7916 22.75C61.7916 22.71 61.7916 22.67 61.7916 22.64C61.7916 10.11 42.7616 0 30.4116 0C18.4616 0 0.00162155 9.72 0.00162155 22.64C-0.0283784 23.15 0.361622 23.58 0.861622 23.61C0.901622 23.61 0.931621 23.61 0.971622 23.61H4.96162C4.07162 24.6 3.59162 25.88 3.60162 27.21V29.24V29.73C3.58162 31.37 4.34162 32.92 5.64162 33.91C4.41162 34.61 3.64162 35.9 3.60162 37.31V37.8C3.63162 38.59 3.87162 39.36 4.29162 40.03H0.971622C0.461622 40 0.0316215 40.39 0.00162155 40.89C0.00162155 40.93 0.00162155 40.96 0.00162155 41C0.00162155 47.41 6.91162 52.66 15.3616 52.66H46.4616C50.2816 52.74 54.0316 51.58 57.1416 49.35C59.9116 47.45 61.6016 44.35 61.7116 40.99C61.7916 40.53 61.4816 40.1 61.0216 40.02C60.9416 40.02 60.8816 40.01 60.8216 40.02ZM30.4016 1.93C41.4716 1.93 58.8616 10.87 59.8416 21.65H1.93162C2.91162 10.68 19.5216 1.93 30.4016 1.93ZM53.5216 35.06C54.8716 34.91 56.0816 35.89 56.2316 37.24C56.2316 37.26 56.2316 37.28 56.2416 37.3V37.79C56.1016 38.96 55.1816 39.88 54.0116 40.02H49.4416V35.07L53.5216 35.06ZM40.4016 35.06H43.0216V43.32C42.9116 43.91 42.3716 44.33 41.7616 44.28C41.0816 44.28 40.5016 43.8 40.5016 43.32C40.4116 43.03 40.4116 34.96 40.4016 35.06ZM44.9716 40.11V35.06H47.5916V40.11C47.5916 40.5 47.1016 40.79 46.7116 40.79H45.9416C45.4616 40.8 44.9816 40.5 44.9716 40.11ZM52.8416 33.12H8.93162C7.08162 33.14 5.56162 31.67 5.53162 29.82L10.4916 27.78C11.4016 27.39 12.4616 27.62 13.1116 28.36C15.8316 32.24 20.4916 28.06 20.9616 27.97C22.9116 26.81 24.2616 28.85 24.6516 29.14C26.1816 30.41 28.3716 30.5 29.9916 29.34L31.5516 28.17C32.3716 27.59 33.4616 27.59 34.2816 28.17L36.3116 29.72C37.6816 30.69 39.4816 30.8 40.9716 30.02L44.8616 27.79C45.6316 27.38 46.5616 27.42 47.2916 27.88L49.6216 29.53C51.2016 30.58 53.2716 30.51 54.7716 29.34L56.4216 27.88V29.72C56.2516 31.59 54.7216 33.05 52.8516 33.14L52.8416 33.12ZM5.53162 27.67V27.09C5.52162 25.17 7.08162 23.6 9.00162 23.6C9.01162 23.6 9.02162 23.6 9.03162 23.6H52.8416C54.1616 23.6 55.3716 24.35 55.9516 25.54L53.4416 27.68C52.6516 28.3 51.5516 28.34 50.7216 27.78L48.3916 26.12C47.0516 25.24 45.3316 25.17 43.9216 25.93L40.0416 28.16C39.2416 28.56 38.2916 28.53 37.5316 28.07L35.4916 26.52C33.9716 25.46 31.9516 25.46 30.4416 26.52L28.8716 27.68C28.0216 28.3 26.8516 28.26 26.0416 27.59C24.6116 25.77 22.0916 25.2 20.0216 26.24C19.2416 26.53 16.3316 29.35 14.7716 27.21C13.6016 25.71 11.5616 25.19 9.81162 25.95L5.53162 27.67ZM5.53162 37.88V37.39C5.64162 36 6.85162 34.96 8.24162 35.06H38.4616V40.01H7.76162C6.60162 39.94 5.65162 39.04 5.53162 37.88ZM56.0516 47.79C53.2516 49.79 49.8716 50.82 46.4416 50.71H15.3416C8.43162 50.71 2.71162 46.82 2.03162 41.97C52.0716 42.06 34.7716 41.97 38.5616 42.06V43.32C38.6416 45.01 40.0716 46.31 41.7616 46.23H41.7716C43.4516 46.28 44.8616 44.99 44.9716 43.32V42.64C45.2516 42.75 45.5516 42.82 45.8516 42.84H46.6316C47.3316 42.81 48.0116 42.57 48.5716 42.16C48.8716 42.16 46.8216 42.16 59.8416 42.06C59.3716 44.38 58.0116 46.44 56.0516 47.79Z" fill="url(#paint0_linear)"/>
<defs>
<linearGradient id="paint0_linear" x1="17.7987" y1="32.5277" x2="71.3499" y2="23.5116" gradientUnits="userSpaceOnUse">
<stop stop-color="#2F97F6"/>
<stop offset="1" stop-color="#2DE799"/>
</linearGradient>
</defs>
</svg>
