<svg width="54" height="38" viewBox="0 0 54 38" fill="none" xmlns="http://www.w3.org/2000/svg">
<g clip-path="url(#clip0)">
<path d="M9.04992 15.44C9.57992 15.58 10.1299 15.25 10.2599 14.72C12.1599 7.23 18.8799 2 26.6199 2C35.9199 2 43.4899 9.57 43.4899 18.87C43.4899 21.78 42.7399 24.66 41.3099 27.17C41.0399 27.65 41.2099 28.26 41.6899 28.53C41.8499 28.62 42.0199 28.66 42.1799 28.66C42.5299 28.66 42.8699 28.48 43.0499 28.15C44.6499 25.33 45.4899 22.12 45.4899 18.86C45.4899 8.46 37.0199 0 26.6199 0C17.9599 0 10.4399 5.85 8.31992 14.23C8.18992 14.76 8.50992 15.31 9.04992 15.44Z" fill="url(#paint0_linear)"/>
<path d="M35.2099 33.3901C32.6199 34.9301 29.6499 35.7401 26.6199 35.7401C19.0799 35.7401 12.3899 30.6701 10.3699 23.4101C10.2199 22.8801 9.66991 22.5601 9.13991 22.7201C8.60991 22.8701 8.29991 23.4201 8.44991 23.9501C10.7199 32.0701 18.1899 37.7401 26.6299 37.7401C30.0199 37.7401 33.3399 36.8301 36.2399 35.1101C36.7199 34.8301 36.8699 34.2101 36.5899 33.7401C36.2899 33.2701 35.6799 33.1101 35.2099 33.3901Z" fill="url(#paint1_linear)"/>
<path d="M15.37 11.5899C15.07 12.0499 15.21 12.6699 15.67 12.9699C15.84 13.0799 16.03 13.1299 16.21 13.1299C16.54 13.1299 16.86 12.9699 17.05 12.6699C19.17 9.3699 22.78 7.3999 26.7 7.3999C27.25 7.3999 27.7 6.9499 27.7 6.3999C27.7 5.8499 27.25 5.3999 26.7 5.3999C22.1 5.3999 17.86 7.7199 15.37 11.5899Z" fill="url(#paint2_linear)"/>
<path d="M49.43 17.76C49.05 17.36 48.41 17.3499 48.02 17.74C47.62 18.1199 47.61 18.76 48 19.15C51.08 22.33 52.33 25.19 51.5 27.2C50.6 29.38 47.18 30.55 42.11 30.45C36.64 30.32 29.93 28.7299 23.21 25.9699C16.5 23.2099 10.61 19.6199 6.63001 15.86C2.94001 12.37 1.34001 9.11995 2.24001 6.93995C3.12001 4.79995 6.43001 3.61995 11.35 3.67995C11.9 3.67995 12.36 3.24995 12.36 2.68995C12.37 2.13995 11.93 1.67995 11.37 1.67995C5.51001 1.60995 1.62001 3.19995 0.400007 6.17995C-0.849993 9.21995 0.880008 13.17 5.26001 17.3099C9.41001 21.2299 15.52 24.9699 22.45 27.82C29.39 30.67 36.35 32.32 42.06 32.45C42.3 32.46 42.54 32.4599 42.78 32.4599C48.41 32.4599 52.15 30.8699 53.35 27.9599C54.51 25.1299 53.16 21.61 49.43 17.76Z" fill="url(#paint3_linear)"/>
</g>
<defs>
<linearGradient id="paint0_linear" x1="19.0059" y1="17.7018" x2="51.0465" y2="11.7344" gradientUnits="userSpaceOnUse">
<stop stop-color="#2F97F6"/>
<stop offset="1" stop-color="#2DE799"/>
</linearGradient>
<linearGradient id="paint1_linear" x1="16.569" y1="31.9813" x2="40.094" y2="25.6344" gradientUnits="userSpaceOnUse">
<stop stop-color="#2F97F6"/>
<stop offset="1" stop-color="#2DE799"/>
</linearGradient>
<linearGradient id="paint2_linear" x1="18.8087" y1="10.1743" x2="29.3709" y2="7.72571" gradientUnits="userSpaceOnUse">
<stop stop-color="#2F97F6"/>
<stop offset="1" stop-color="#2DE799"/>
</linearGradient>
<linearGradient id="paint3_linear" x1="15.486" y1="20.6903" x2="60.5588" y2="9.39689" gradientUnits="userSpaceOnUse">
<stop stop-color="#2F97F6"/>
<stop offset="1" stop-color="#2DE799"/>
</linearGradient>
<clipPath id="clip0">
<rect width="53.76" height="37.74" fill="white"/>
</clipPath>
</defs>
</svg>
